<!DOCTYPE svg PUBLIC "-//W3C//DTD SVG 20010904//EN" "http://www.w3.org/TR/2001/REC-SVG-20010904/DTD/svg10.dtd">
<svg version="1.0" xmlns="http://www.w3.org/2000/svg" width="500px" height="500px" viewBox="0 0 5000 5000" preserveAspectRatio="xMidYMid meet">
<g id="layer101" fill="#ac532d" stroke="none">
 <path d="M0 2500 l0 -2500 2500 0 2500 0 0 2500 0 2500 -2500 0 -2500 0 0 -2500z"/>
 </g>
<g id="layer102" fill="#fefefd" stroke="none">
 <path d="M1570 2495 l0 -1925 130 0 130 0 0 1925 0 1925 -130 0 -130 0 0 -1925z"/>
 <path d="M1992 2498 l3 -1923 225 -3 c502 -7 748 31 956 146 210 117 340 316 401 614 25 120 24 486 0 618 -63 335 -207 535 -490 681 -76 39 -98 55 -94 67 3 10 170 393 372 852 202 459 370 843 372 853 5 16 -5 17 -138 15 l-144 -3 -357 -835 -356 -835 -246 -3 -246 -2 0 840 0 840 -130 0 -130 0 2 -1922z m858 -27 c116 -35 187 -77 272 -162 59 -60 85 -95 117 -160 86 -180 119 -422 90 -676 -32 -286 -139 -461 -341 -558 -139 -66 -202 -77 -490 -82 l-248 -5 0 837 0 837 263 -5 c233 -4 270 -6 337 -26z"/>
 </g>

</svg>